<svg width="320" height="88" viewBox="0 0 320 88" fill="none" xmlns="http://www.w3.org/2000/svg">
<rect width="320" height="88" fill="white"/>
<rect x="264" y="24" width="40" height="40" rx="20" fill="#FF3E79"/>
<path d="M291 34C291.552 34 292 34.4477 292 35V52.5C291.172 52.5 290.5 53.1716 290.5 54H289.5C289.5 53.1716 288.828 52.5 288 52.5C287.172 52.5 286.5 53.1716 286.5 54H285.5C285.5 53.1716 284.828 52.5 284 52.5C283.172 52.5 282.5 53.1716 282.5 54H281.5C281.5 53.1716 280.828 52.5 280 52.5C279.172 52.5 278.5 53.1716 278.5 54H277.5C277.5 53.1716 276.828 52.5 276 52.5V35C276 34.4477 276.448 34 277 34H291ZM283.854 37.8799C280.949 37.42 278.495 39.8259 278.859 42.7109C279.089 44.5322 280.528 46.0473 282.33 46.3828C283.471 46.5935 284.553 46.3439 285.416 45.7881L287.525 47.8975C287.899 48.2711 288.513 48.271 288.896 47.8877C289.27 47.5139 289.27 46.9002 288.896 46.5264L286.787 44.4268C287.324 43.5737 287.582 42.5483 287.4 41.4365C287.103 39.644 285.656 38.1675 283.854 37.8799ZM283.059 39.7061C284.357 39.7061 285.412 40.7598 285.412 42.0586C285.412 43.3574 284.357 44.4121 283.059 44.4121C281.76 44.412 280.706 43.3574 280.706 42.0586C280.706 40.7599 281.76 39.7061 283.059 39.7061Z" fill="white"/>
<rect x="186" y="28" width="2" height="32" rx="1" fill="#EAEAEA"/>
<rect x="208" y="24" width="40" height="40" rx="20" fill="#FF3E79"/>
<path d="M226.258 47.4583L226.667 47.0494L224.95 45.3322L224.541 45.7411L224.337 45.5367C224.01 45.1687 223.683 44.9643 223.356 45.0052C223.11 45.0052 222.906 45.1687 222.743 45.414C222.497 45.8229 222.62 46.2726 222.661 46.5588C222.661 46.6406 222.702 46.6815 222.702 46.7632C222.702 46.8859 222.702 47.0494 222.416 47.0903C222.007 47.213 221.475 47.3356 220.944 47.6218C220.208 48.0307 219.718 48.3987 219.431 48.7666C217.919 50.7291 218.001 52.4055 218.001 52.4872C218.001 52.6099 218.042 52.6917 218.123 52.7325L219.227 53.8773C219.309 53.9591 219.391 54 219.472 54C219.472 54 219.513 54 219.595 54C220.004 54 221.475 53.9182 223.192 52.569C223.56 52.2828 223.928 51.7922 224.337 51.0562C224.623 50.5656 224.786 50.0341 224.868 49.5844C224.95 49.2982 225.073 49.2982 225.195 49.2982C225.236 49.2982 225.318 49.339 225.4 49.339C225.563 49.3799 225.727 49.4208 225.931 49.4208C226.135 49.4208 226.34 49.3799 226.544 49.2573C226.789 49.0937 226.953 48.8893 226.994 48.644C227.035 48.3169 226.871 47.9898 226.503 47.7036L226.258 47.4583Z" fill="white"/>
<path d="M234.884 38.8784L236.019 38.326C236.061 38.2835 236.145 38.241 236.187 38.1986L237.91 35.8616C238.036 35.6916 238.036 35.4367 237.868 35.3092L236.691 34.1195C236.565 33.992 236.313 33.9495 236.145 34.077L233.833 35.8191C233.791 35.8616 233.749 35.9041 233.707 35.989L233.161 37.1363L229 41.2154L230.765 43L234.884 38.8784Z" fill="white"/>
<path d="M235.853 47.0448C234.864 46.0036 233.439 45.6288 232.094 46.0036L225.645 39.1733C225.724 38.7985 225.764 38.4653 225.764 38.0905C225.764 37.0493 225.368 36.0081 224.617 35.2167C223.588 34.0923 222.045 33.7174 220.621 34.2172C220.542 34.2588 220.423 34.3838 220.383 34.5504C220.383 34.6753 220.423 34.8003 220.502 34.9252L222.441 36.966C222.876 37.4241 222.876 38.2154 222.441 38.6735C222.005 39.1317 221.254 39.1317 220.819 38.6735L218.88 36.6328C218.761 36.5495 218.643 36.5078 218.484 36.5495C218.366 36.5495 218.247 36.6744 218.207 36.7994C217.733 38.2571 218.089 39.8813 219.117 40.9642C219.829 41.7555 220.858 42.172 221.887 42.172C222.203 42.172 222.559 42.1303 222.876 42.047L229.364 48.8773C229.008 50.2933 229.404 51.7927 230.353 52.8339C231.105 53.6252 232.055 54 233.083 54C233.518 54 233.914 53.9167 234.349 53.7918C234.468 53.7501 234.587 53.6252 234.626 53.5002C234.666 53.3753 234.626 53.2087 234.507 53.1254L232.569 51.0846C232.371 50.8764 232.213 50.5432 232.213 50.21C232.213 49.8768 232.332 49.5853 232.569 49.3354C232.806 49.0855 233.083 48.9606 233.4 48.9606C233.716 48.9606 233.993 49.0855 234.231 49.3354L236.169 51.3762C236.288 51.4595 236.407 51.5011 236.525 51.5011C236.644 51.4595 236.763 51.3762 236.802 51.2512C236.921 50.8348 237 50.3766 237 49.9185C237 48.8356 236.604 47.7944 235.853 47.0448Z" fill="white"/>
<rect x="16" y="24" width="40" height="40" rx="20" fill="#FF3E79"/>
<path d="M40 50C40.5523 50 41 50.4477 41 51C41 51.5523 40.5523 52 40 52H28C27.4477 52 27 51.5523 27 51C27 50.4477 27.4477 50 28 50H40ZM36 43C36.5523 43 37 43.4477 37 44C37 44.5523 36.5523 45 36 45H28C27.4477 45 27 44.5523 27 44C27 43.4477 27.4477 43 28 43H36ZM44 36C44.5523 36 45 36.4477 45 37C45 37.5523 44.5523 38 44 38H28C27.4477 38 27 37.5523 27 37C27 36.4477 27.4477 36 28 36H44Z" fill="white"/>
<rect y="87" width="320" height="1" fill="#D9FFF5"/>
<path fill-rule="evenodd" clip-rule="evenodd" d="M108.571 18.5925C108.018 18.5925 107.571 19.0402 107.571 19.5925V23.8675C107.571 24.4198 108.018 24.8675 108.571 24.8675H144.897C155.024 24.8675 162.978 32.6641 162.978 42.757C162.978 43.0425 163.209 43.274 163.495 43.274H168.757C169.043 43.274 169.274 43.0425 169.274 42.757C169.274 29.2677 158.432 18.5925 144.897 18.5925H108.571Z" fill="#6B7B84" stroke="#80949F" stroke-width="0.5"/>
<path fill-rule="evenodd" clip-rule="evenodd" d="M79.1068 43.7122C79.1068 43.4702 78.9106 43.2739 78.6685 43.2739H73.1644C72.9223 43.2739 72.7261 43.4702 72.7261 43.7122C72.7261 57.3616 82.9493 68.6311 96.1687 69.3686L138.51 69.4064C139.063 69.4069 139.511 68.959 139.511 68.4064V63.8267C139.511 63.2745 139.064 62.8267 138.511 62.8267H97.6265C87.3903 62.7984 79.1068 54.283 79.1068 43.7122Z" fill="#6B7B84" stroke="#80949F" stroke-width="0.5"/>
<path fill-rule="evenodd" clip-rule="evenodd" d="M100.142 57.7924C102.88 57.7924 105.162 57.2603 107.415 56.1655L107.57 56.0199V48.1855L106.727 49.2649C105.105 51.0378 102.926 52.0137 100.461 52.0137C95.8692 52.0137 91.2575 49.0459 91.2575 43.3738C91.2575 39.0874 94.4381 34.532 100.299 34.532C101.469 34.532 104.313 34.8085 106.723 37.368L107.57 38.4117V30.6127L107.422 30.4653C105.126 29.3147 102.784 28.7554 100.114 28.7554C95.5467 28.7554 91.9821 29.9577 89.1438 32.4289C87.3435 33.9777 84.3408 37.4485 84.3408 43.2923C84.3408 47.6131 85.8793 50.9875 89.1669 53.9144C92.2252 56.5962 95.6163 57.7924 100.142 57.7924Z" fill="#6B7B84"/>
<path d="M100.142 57.7924C102.88 57.7924 105.162 57.2603 107.415 56.1655L107.57 56.0199V48.1855L106.727 49.2649C105.105 51.0378 102.926 52.0137 100.461 52.0137C95.8692 52.0137 91.2575 49.0459 91.2575 43.3738C91.2575 39.0874 94.4381 34.532 100.299 34.532C101.469 34.532 104.313 34.8085 106.723 37.368L107.57 38.4117V30.6127L107.422 30.4653C105.126 29.3147 102.784 28.7554 100.114 28.7554C95.5467 28.7554 91.9821 29.9577 89.1438 32.4289C87.3435 33.9777 84.3408 37.4485 84.3408 43.2923C84.3408 47.6131 85.8793 50.9875 89.1669 53.9144C92.2252 56.5962 95.6163 57.7924 100.142 57.7924" stroke="#80949F" stroke-width="0.5"/>
<path fill-rule="evenodd" clip-rule="evenodd" d="M119.911 35.2888H121.275C122.527 35.2888 123.953 35.3571 125.033 36.093C125.56 36.4695 126.444 37.3412 126.444 38.9246C126.444 40.0946 125.927 41.1437 125.073 41.7984C123.978 42.5932 122.677 42.5476 121.631 42.5476H119.911V35.2888ZM122.977 47.8179C126.208 47.8179 128.738 46.8858 130.494 45.1298C132.655 42.9735 132.978 40.0073 132.978 38.4435C132.978 36.7703 132.581 33.5066 129.921 31.1435C127.741 29.2328 125.414 28.7554 122.132 28.7554H113.378V57.7924H120.037V47.8179H122.977Z" fill="#6B7B84"/>
<path d="M119.911 35.2888V35.0388H119.661V35.2888H119.911ZM125.033 36.093L125.178 35.8895L125.174 35.8864L125.033 36.093ZM125.073 41.7984L125.22 42.0007L125.225 41.9968L125.073 41.7984ZM119.911 42.5476H119.661V42.7976H119.911V42.5476ZM130.494 45.1298L130.318 44.9529L130.318 44.953L130.494 45.1298ZM129.921 31.1435L130.087 30.9566L130.086 30.9555L129.921 31.1435ZM113.378 28.7554V28.5054H113.128V28.7554H113.378ZM113.378 57.7924H113.128V58.0424H113.378V57.7924ZM120.037 57.7924V58.0424H120.287V57.7924H120.037ZM120.037 47.8179V47.5679H119.787V47.8179H120.037ZM119.911 35.2888V35.5388H121.275V35.2888V35.0388H119.911V35.2888ZM121.275 35.2888V35.5388C122.533 35.5388 123.884 35.6123 124.892 36.2995L125.033 36.093L125.174 35.8864C124.023 35.1019 122.521 35.0388 121.275 35.0388V35.2888ZM125.033 36.093L124.888 36.2964C125.375 36.6447 126.194 37.4495 126.194 38.9246H126.444H126.694C126.694 37.233 125.745 36.2943 125.178 35.8895L125.033 36.093ZM126.444 38.9246H126.194C126.194 40.0205 125.711 40.9948 124.921 41.5999L125.073 41.7984L125.225 41.9968C126.144 41.2926 126.694 40.1687 126.694 38.9246H126.444ZM125.073 41.7984L124.926 41.596C123.909 42.3345 122.697 42.2976 121.631 42.2976V42.5476V42.7976C122.656 42.7976 124.048 42.8519 125.22 42.0007L125.073 41.7984ZM121.631 42.5476V42.2976H119.911V42.5476V42.7976H121.631V42.5476ZM119.911 42.5476H120.161V35.2888H119.911H119.661V42.5476H119.911ZM122.977 47.8179V48.0679C126.257 48.0679 128.856 47.1207 130.671 45.3066L130.494 45.1298L130.318 44.953C128.619 46.6509 126.16 47.5679 122.977 47.5679V47.8179ZM130.494 45.1298L130.671 45.3068C132.903 43.0793 133.228 40.0287 133.228 38.4435H132.978H132.728C132.728 39.9859 132.407 42.8678 130.318 44.9529L130.494 45.1298ZM132.978 38.4435H133.228C133.228 36.7422 132.826 33.3898 130.087 30.9566L129.921 31.1435L129.755 31.3304C132.336 33.6233 132.728 36.7983 132.728 38.4435H132.978ZM129.921 31.1435L130.086 30.9555C127.84 28.9874 125.442 28.5054 122.132 28.5054V28.7554V29.0054C125.387 29.0054 127.641 29.4782 129.756 31.3315L129.921 31.1435ZM122.132 28.7554V28.5054H113.378V28.7554V29.0054H122.132V28.7554ZM113.378 28.7554H113.128V57.7924H113.378H113.628V28.7554H113.378ZM113.378 57.7924V58.0424H120.037V57.7924V57.5424H113.378V57.7924ZM120.037 57.7924H120.287V47.8179H120.037H119.787V57.7924H120.037ZM120.037 47.8179V48.0679H122.977V47.8179V47.5679H120.037V47.8179Z" fill="#80949F"/>
<path fill-rule="evenodd" clip-rule="evenodd" d="M152.953 42.4687C151.505 41.1861 149.485 40.4425 147.191 39.6713C145.557 39.1027 144.657 38.7894 144.056 38.2421C143.582 37.8399 143.371 37.4033 143.371 36.8262C143.371 35.5622 144.23 34.2113 146.641 34.2113C148.28 34.2113 149.652 34.912 150.72 36.293L151.143 36.8414L154.66 32.3656L154.339 32.0445C152.189 29.8924 149.355 28.7554 146.144 28.7554C139.666 28.7554 136.766 32.9699 136.766 37.1468C136.766 39.3882 137.565 41.196 139.137 42.5175C140.544 43.7234 142.26 44.3991 143.905 44.9507L144.091 45.0123C145.553 45.4954 147.065 45.9954 147.967 46.8034C148.595 47.3805 148.875 48.0076 148.875 48.8367C148.875 50.7368 147.379 52.0137 145.152 52.0137C143.392 52.0137 141.074 51.1508 139.847 48.7296L139.526 48.0953L135.156 52.1411L135.414 52.5056C136.808 54.4801 139.954 57.7924 145.359 57.7924C151.319 57.7924 155.482 53.9608 155.482 48.4751C155.482 45.3374 154.105 43.4752 152.953 42.4687Z" fill="#6B7B84"/>
<path d="M152.953 42.4687C151.505 41.1861 149.485 40.4425 147.191 39.6713C145.557 39.1027 144.657 38.7894 144.056 38.2421C143.582 37.8399 143.371 37.4033 143.371 36.8262C143.371 35.5622 144.23 34.2113 146.641 34.2113C148.28 34.2113 149.652 34.912 150.72 36.293L151.143 36.8414L154.66 32.3656L154.339 32.0445C152.189 29.8924 149.355 28.7554 146.144 28.7554C139.666 28.7554 136.766 32.9699 136.766 37.1468C136.766 39.3882 137.565 41.196 139.137 42.5175C140.544 43.7234 142.26 44.3991 143.905 44.9507L144.091 45.0123C145.553 45.4954 147.065 45.9954 147.967 46.8034C148.595 47.3805 148.875 48.0076 148.875 48.8367C148.875 50.7368 147.379 52.0137 145.152 52.0137C143.392 52.0137 141.074 51.1508 139.847 48.7296L139.526 48.0953L135.156 52.1411L135.414 52.5056C136.808 54.4801 139.954 57.7924 145.359 57.7924C151.319 57.7924 155.482 53.9608 155.482 48.4751C155.482 45.3374 154.105 43.4752 152.953 42.4687" stroke="#80949F" stroke-width="0.5"/>
</svg>
